<svg width="24" height="24" viewBox="0 0 24 24" fill="none" xmlns="http://www.w3.org/2000/svg">
<path d="M9.88463 20H14.0769V18.8616L14.6346 18.6692C15.9103 18.2744 16.9946 17.6349 17.8875 16.7509C18.7805 15.867 19.3936 14.95 19.7269 14H4.27308C4.60641 14.95 5.21218 15.867 6.09038 16.7509C6.96859 17.6349 8.04744 18.2744 9.32692 18.6692L9.88463 18.8616V20ZM8.8846 21V19.5577C7.29358 19.0628 5.96955 18.2038 4.9125 16.9808C3.85545 15.7577 3.21795 14.4308 3 13H5V4.75L21 3V3.90385L10.4231 5.06922V7.17307H21V8.0577H10.4231V13H21C20.8077 14.4308 20.1702 15.7577 19.0875 16.9808C18.0048 18.2038 16.668 19.0628 15.0769 19.5577V21H8.8846ZM8.15385 7.17307H9.53845V5.16152L8.15385 5.30578V7.17307ZM5.88462 7.17307H7.26923V5.40385L5.88462 5.56153V7.17307ZM8.15385 13H9.53845V8.0577H8.15385V13ZM5.88462 13H7.26923V8.0577H5.88462V13Z" fill="#232323"/>
</svg>
