<svg width="24" height="24" viewBox="0 0 24 24" fill="none" xmlns="http://www.w3.org/2000/svg">
<path d="M12 19.6542L11.2423 18.9696C9.61025 17.4786 8.26025 16.2023 7.1923 15.1408C6.12435 14.0792 5.2814 13.143 4.66345 12.3321C4.0455 11.5212 3.61378 10.7876 3.36828 10.1312C3.12276 9.47475 3 8.81449 3 8.15039C3 6.87859 3.43205 5.81064 4.29615 4.94654C5.16025 4.08244 6.2282 3.65039 7.5 3.65039C8.37948 3.65039 9.20448 3.87539 9.975 4.32539C10.7455 4.77539 11.4205 5.42987 12 6.28884C12.5795 5.42987 13.2545 4.77539 14.025 4.32539C14.7955 3.87539 15.6205 3.65039 16.5 3.65039C17.7718 3.65039 18.8398 4.08244 19.7039 4.94654C20.568 5.81064 21 6.87859 21 8.15039C21 8.81449 20.8772 9.47475 20.6317 10.1312C20.3862 10.7876 19.9545 11.5212 19.3365 12.3321C18.7186 13.143 17.8789 14.0792 16.8173 15.1408C15.7558 16.2023 14.4026 17.4786 12.7577 18.9696L12 19.6542ZM12 18.3004C13.6 16.8542 14.9167 15.6155 15.95 14.584C16.9833 13.5526 17.8 12.6578 18.4 11.8994C19 11.1411 19.4167 10.4693 19.65 9.88404C19.8833 9.29879 20 8.72091 20 8.15039C20 7.15039 19.6667 6.31706 19 5.65039C18.3333 4.98372 17.5 4.65039 16.5 4.65039C15.7039 4.65039 14.9692 4.87763 14.2962 5.33212C13.6231 5.7866 13.0205 6.4709 12.4885 7.38502H11.5115C10.9667 6.45808 10.3609 5.77058 9.69423 5.32252C9.02756 4.87443 8.29615 4.65039 7.5 4.65039C6.51282 4.65039 5.68269 4.98372 5.00962 5.65039C4.33654 6.31706 4 7.15039 4 8.15039C4 8.72091 4.11667 9.29879 4.35 9.88404C4.58333 10.4693 5 11.1411 5.6 11.8994C6.2 12.6578 7.01667 13.5494 8.05 14.5744C9.08333 15.5994 10.4 16.8414 12 18.3004Z" fill="#232323"/>
</svg>
