<svg width="24" height="24" viewBox="0 0 24 24" fill="none" xmlns="http://www.w3.org/2000/svg">
<path d="M10.1347 21L9.77321 18.1077C9.45398 18.0115 9.10879 17.8603 8.73764 17.6539C8.36649 17.4474 8.05078 17.2263 7.79051 16.9904L5.12321 18.125L3.25781 14.875L5.56359 13.1365C5.5341 12.9558 5.50975 12.7695 5.49051 12.5779C5.47128 12.3862 5.46166 12.2 5.46166 12.0192C5.46166 11.8513 5.47128 11.6747 5.49051 11.4894C5.50975 11.3042 5.5341 11.0955 5.56359 10.8635L3.25781 9.125L5.12321 5.91345L7.77129 7.02885C8.07 6.78013 8.39308 6.55578 8.74051 6.35578C9.08795 6.15578 9.42577 6.00128 9.75399 5.8923L10.1347 3H13.8655L14.2271 5.91153C14.6104 6.04614 14.9492 6.20063 15.2434 6.375C15.5376 6.54935 15.8405 6.7673 16.1521 7.02885L18.8771 5.91345L20.7425 9.125L18.3598 10.9212C18.4149 11.1276 18.4457 11.317 18.4521 11.4894C18.4585 11.6619 18.4617 11.8321 18.4617 12C18.4617 12.1551 18.4553 12.3189 18.4425 12.4913C18.4296 12.6638 18.4001 12.8724 18.354 13.1173L20.6982 14.875L18.8328 18.125L16.1521 16.9712C15.8405 17.2327 15.5271 17.4571 15.2117 17.6442C14.8963 17.8314 14.5681 17.9795 14.2271 18.0885L13.8655 21H10.1347ZM11.0001 20H12.9559L13.3251 17.2923C13.829 17.159 14.2825 16.976 14.6857 16.7433C15.0889 16.5106 15.4995 16.1917 15.9174 15.7866L18.4117 16.85L19.4059 15.15L17.2174 13.5058C17.3008 13.2212 17.3559 12.9593 17.3828 12.7202C17.4098 12.4811 17.4232 12.241 17.4232 12C17.4232 11.7462 17.4098 11.5061 17.3828 11.2798C17.3559 11.0535 17.3008 10.8045 17.2174 10.5327L19.4444 8.85L18.4501 7.15L15.8982 8.21922C15.5956 7.88717 15.1979 7.57596 14.7049 7.28557C14.212 6.99519 13.7456 6.80257 13.3059 6.7077L13.0001 4H11.0059L10.6944 6.68845C10.1905 6.79615 9.72737 6.96955 9.30494 7.20865C8.8825 7.44775 8.46231 7.77627 8.04436 8.19422L5.55014 7.15L4.55591 8.85L6.72514 10.4692C6.6418 10.6936 6.58347 10.9372 6.55014 11.2C6.5168 11.4628 6.50014 11.7359 6.50014 12.0192C6.50014 12.2731 6.5168 12.525 6.55014 12.775C6.58347 13.025 6.6354 13.2686 6.70591 13.5058L4.55591 15.15L5.55014 16.85L8.02514 15.8C8.41744 16.1962 8.82481 16.5138 9.24726 16.7529C9.6697 16.992 10.1457 17.1782 10.6751 17.3116L11.0001 20ZM11.9732 14.5C12.6706 14.5 13.2617 14.2577 13.7463 13.7731C14.2309 13.2885 14.4732 12.6974 14.4732 12C14.4732 11.3026 14.2309 10.7115 13.7463 10.2269C13.2617 9.74231 12.6706 9.5 11.9732 9.5C11.2719 9.5 10.6799 9.74231 10.1972 10.2269C9.71455 10.7115 9.47321 11.3026 9.47321 12C9.47321 12.6974 9.71455 13.2885 10.1972 13.7731C10.6799 14.2577 11.2719 14.5 11.9732 14.5Z" fill="#232323"/>
</svg>
