<svg width="24" height="24" viewBox="0 0 24 24" fill="none" xmlns="http://www.w3.org/2000/svg">
<path d="M9.38463 2.5V1.5H14.6154V2.5H9.38463ZM11.5 13.6154H12.5V8.38463H11.5V13.6154ZM12 21C10.8949 21 9.85737 20.7914 8.8875 20.3741C7.91763 19.9567 7.06923 19.3846 6.3423 18.6577C5.61538 17.9308 5.04327 17.0824 4.62595 16.1125C4.20865 15.1426 4 14.1051 4 13C4 11.8949 4.20865 10.8574 4.62595 9.8875C5.04327 8.91763 5.61538 8.06923 6.3423 7.3423C7.06923 6.61538 7.91763 6.04327 8.8875 5.62595C9.85737 5.20865 10.8949 5 12 5C12.9692 5 13.9064 5.17307 14.8115 5.51922C15.7167 5.86537 16.5474 6.35512 17.3038 6.98845L18.3962 5.89615L19.1039 6.60385L18.0115 7.69615C18.6449 8.45257 19.1346 9.28333 19.4808 10.1885C19.8269 11.0936 20 12.0308 20 13C20 14.1051 19.7913 15.1426 19.374 16.1125C18.9567 17.0824 18.3846 17.9308 17.6577 18.6577C16.9308 19.3846 16.0824 19.9567 15.1125 20.3741C14.1426 20.7914 13.1051 21 12 21ZM12 20C13.9333 20 15.5833 19.3167 16.95 17.95C18.3167 16.5833 19 14.9333 19 13C19 11.0667 18.3167 9.41667 16.95 8.05C15.5833 6.68333 13.9333 6 12 6C10.0667 6 8.41667 6.68333 7.05 8.05C5.68333 9.41667 5 11.0667 5 13C5 14.9333 5.68333 16.5833 7.05 17.95C8.41667 19.3167 10.0667 20 12 20Z" fill="#232323"/>
</svg>
